<svg xmlns="http://www.w3.org/2000/svg" width="1200" height="630">
    <defs>
        <linearGradient id="a" x1="411.63" x2="1326.63" y1="-21.68" y2="893.32"
            gradientTransform="translate(-269.13 -120.82)" gradientUnits="userSpaceOnUse">
            <stop offset="0" stop-color="#9793ed" />
            <stop offset="1" stop-color="#fea44b" />
        </linearGradient>
    </defs>
    <path d="M0 0h1200v630H0z" style="fill:url(#a)" />
    <g style="opacity:.07">
        <path
            d="M1142.8 5.5c0-2.21 1.79-4 4-4h8c2 0 3 1 4 2l4 4c1 1 2 2 4 2h12c2 0 3-1 4-2l4-4c1-1 2-2 4-2h246.91c2.21 0 4 1.79 4 4v40c0 2.21-1.79 4-4 4H1206.8c-2 0-3 1-4 2l-4 4c-1 1-2 2-4 2h-12c-2 0-3-1-4-2l-4-4c-1-1-2-2-4-2h-8c-2.21 0-4 1.79-4 4v88c0 2.21 1.79 4 4 4h8c2 0 3 1 4 2l4 4c1 1 2 2 4 2h12c2 0 3-1 4-2l4-4c1-1 2-2 4-2h230.91c2.21 0 4 1.79 4 4v24c0 2.21-1.79 4-4 4H1190.8c-2 0-3 1-4 2l-4 4c-1 1-2 2-4 2h-12c-2 0-3-1-4-2l-4-4c-1-1-2-2-4-2h-8c-2.21 0-4-1.79-4-4zM1219.1 222.87c0-2.21 1.79-4 4-4h8c2 0 3 1 4 2l4 4c1 1 2 2 4 2h12c2 0 3-1 4-2l4-4c1-1 2-2 4-2h44c2.21 0 4 1.79 4 4v40c0 2.21-1.79 4-4 4h-44c-2 0-3 1-4 2l-4 4c-1 1-2 2-4 2h-12c-2 0-3-1-4-2l-4-4c-1-1-2-2-4-2h-8c-2.21 0-4-1.79-4-4z"
            style="fill:none;stroke:#956134;stroke-width:3px;stroke-miterlimit:10"
            transform="translate(-269.13 -120.82)" />
        <path
            d="M1219.1 270.87c0-2.21 1.79-4 4-4h8c2 0 3 1 4 2l4 4c1 1 2 2 4 2h12c2 0 3-1 4-2l4-4c1-1 2-2 4-2h76c2.21 0 4 1.79 4 4v40c0 2.21-1.79 4-4 4h-76c-2 0-3 1-4 2l-4 4c-1 1-2 2-4 2h-12c-2 0-3-1-4-2l-4-4c-1-1-2-2-4-2h-8c-2.21 0-4-1.79-4-4zM1169.9 362.62c0-2.21 1.79-4 4-4h8c2 0 3 1 4 2l4 4c1 1 2 2 4 2h12c2 0 3-1 4-2l4-4c1-1 2-2 4-2h215.81c2.21 0 4 1.79 4 4v40c0 2.21-1.79 4-4 4H1217.9c-2 0-3 1-4 2l-4 4c-1 1-2 2-4 2h-12c-2 0-3-1-4-2l-4-4c-1-1-2-2-4-2h-8c-2.21 0-4-1.79-4-4z"
            style="fill:none;stroke:#956134;stroke-width:3px;stroke-miterlimit:10"
            transform="translate(-269.13 -120.82)" />
        <path
            d="M1292.25 461.32c0-2.21 1.79-4 4-4h8c2 0 3 1 4 2l4 4c1 1 2 2 4 2h12c2 0 3-1 4-2l4-4c1-1 2-2 4-2h246.91c2.21 0 4 1.79 4 4v40c0 2.21-1.79 4-4 4h-230.91c-2 0-3 1-4 2l-4 4c-1 1-2 2-4 2h-12c-2 0-3-1-4-2l-4-4c-1-1-2-2-4-2h-8c-2.21 0-4 1.79-4 4v88c0 2.21 1.79 4 4 4h8c2 0 3 1 4 2l4 4c1 1 2 2 4 2h12c2 0 3-1 4-2l4-4c1-1 2-2 4-2h230.91c2.21 0 4 1.79 4 4v24c0 2.21-1.79 4-4 4h-246.91c-2 0-3 1-4 2l-4 4c-1 1-2 2-4 2h-12c-2 0-3-1-4-2l-4-4c-1-1-2-2-4-2h-8c-2.21 0-4-1.79-4-4z"
            style="fill:none;stroke:#956134;stroke-width:3px;stroke-miterlimit:10"
            transform="translate(-269.13 -120.82)" />
        <g>
            <path
                d="M1368.55 678.69c0-2.21 1.79-4 4-4h8c2 0 3 1 4 2l4 4c1 1 2 2 4 2h12c2 0 3-1 4-2l4-4c1-1 2-2 4-2h44c2.21 0 4 1.79 4 4v40c0 2.21-1.79 4-4 4h-44c-2 0-3 1-4 2l-4 4c-1 1-2 2-4 2h-12c-2 0-3-1-4-2l-4-4c-1-1-2-2-4-2h-8c-2.21 0-4-1.79-4-4z"
                style="fill:none;stroke:#956134;stroke-width:3px;stroke-miterlimit:10"
                transform="translate(-269.13 -120.82)" />
            <g>
                <path
                    d="M1368.55 726.69c0-2.21 1.79-4 4-4h8c2 0 3 1 4 2l4 4c1 1 2 2 4 2h12c2 0 3-1 4-2l4-4c1-1 2-2 4-2h76c2.21 0 4 1.79 4 4v40c0 2.21-1.79 4-4 4h-76c-2 0-3 1-4 2l-4 4c-1 1-2 2-4 2h-12c-2 0-3-1-4-2l-4-4c-1-1-2-2-4-2h-8c-2.21 0-4-1.79-4-4z"
                    style="fill:none;stroke:#956134;stroke-width:3px;stroke-miterlimit:10"
                    transform="translate(-269.13 -120.82)" />
            </g>
        </g>
        <path
            d="M810.8 193.5c0-2.21 1.79-4 4-4h8c2 0 3 1 4 2l4 4c1 1 2 2 4 2h12c2 0 3-1 4-2l4-4c1-1 2-2 4-2h246.91c2.21 0 4 1.79 4 4v40c0 2.21-1.79 4-4 4H874.8c-2 0-3 1-4 2l-4 4c-1 1-2 2-4 2h-12c-2 0-3-1-4-2l-4-4c-1-1-2-2-4-2h-8c-2.21 0-4 1.79-4 4v88c0 2.21 1.79 4 4 4h8c2 0 3 1 4 2l4 4c1 1 2 2 4 2h12c2 0 3-1 4-2l4-4c1-1 2-2 4-2h230.91c2.21 0 4 1.79 4 4v24c0 2.21-1.79 4-4 4H858.8c-2 0-3 1-4 2l-4 4c-1 1-2 2-4 2h-12c-2 0-3-1-4-2l-4-4c-1-1-2-2-4-2h-8c-2.21 0-4-1.79-4-4z"
            style="fill:none;stroke:#956134;stroke-width:3px;stroke-miterlimit:10"
            transform="translate(-269.13 -120.82)" />
        <g>
            <path
                d="M887.1 410.86c0-2.21 1.79-4 4-4h8c2 0 3 1 4 2l4 4c1 1 2 2 4 2h12c2 0 3-1 4-2l4-4c1-1 2-2 4-2h44c2.21 0 4 1.79 4 4v40c0 2.21-1.79 4-4 4h-44c-2 0-3 1-4 2l-4 4c-1 1-2 2-4 2h-12c-2 0-3-1-4-2l-4-4c-1-1-2-2-4-2h-8c-2.21 0-4-1.79-4-4z"
                style="fill:none;stroke:#956134;stroke-width:3px;stroke-miterlimit:10"
                transform="translate(-269.13 -120.82)" />
            <g>
                <path
                    d="M887.1 458.86c0-2.21 1.79-4 4-4h8c2 0 3 1 4 2l4 4c1 1 2 2 4 2h12c2 0 3-1 4-2l4-4c1-1 2-2 4-2h76c2.21 0 4 1.79 4 4v40c0 2.21-1.79 4-4 4h-76c-2 0-3 1-4 2l-4 4c-1 1-2 2-4 2h-12c-2 0-3-1-4-2l-4-4c-1-1-2-2-4-2h-8c-2.21 0-4-1.79-4-4z"
                    style="fill:none;stroke:#956134;stroke-width:3px;stroke-miterlimit:10"
                    transform="translate(-269.13 -120.82)" />
            </g>
        </g>
        <path
            d="M837.9 550.62c0-2.21 1.79-4 4-4h8c2 0 3 1 4 2l4 4c1 1 2 2 4 2h12c2 0 3-1 4-2l4-4c1-1 2-2 4-2h215.81c2.21 0 4 1.79 4 4v40c0 2.21-1.79 4-4 4H885.9c-2 0-3 1-4 2l-4 4c-1 1-2 2-4 2h-12c-2 0-3-1-4-2l-4-4c-1-1-2-2-4-2h-8c-2.21 0-4-1.79-4-4z"
            style="fill:none;stroke:#956134;stroke-width:3px;stroke-miterlimit:10"
            transform="translate(-269.13 -120.82)" />
        <path
            d="M960.26 649.32c0-2.21 1.79-4 4-4h8c2 0 3 1 4 2l4 4c1 1 2 2 4 2h12c2 0 3-1 4-2l4-4c1-1 2-2 4-2h246.91c2.21 0 4 1.79 4 4v40c0 2.21-1.79 4-4 4h-230.91c-2 0-3 1-4 2l-4 4c-1 1-2 2-4 2h-12c-2 0-3-1-4-2l-4-4c-1-1-2-2-4-2h-8c-2.21 0-4 1.79-4 4v88c0 2.21 1.79 4 4 4h8c2 0 3 1 4 2l4 4c1 1 2 2 4 2h12c2 0 3-1 4-2l4-4c1-1 2-2 4-2h230.91c2.21 0 4 1.79 4 4v24c0 2.21-1.79 4-4 4h-246.91c-2 0-3 1-4 2l-4 4c-1 1-2 2-4 2h-12c-2 0-3-1-4-2l-4-4c-1-1-2-2-4-2h-8c-2.21 0-4-1.79-4-4zM333.5 5.5c0-2.21 1.79-4 4-4h8c2 0 3 1 4 2l4 4c1 1 2 2 4 2h12c2 0 3-1 4-2l4-4c1-1 2-2 4-2h246.91c2.21 0 4 1.79 4 4v40c0 2.21-1.79 4-4 4H397.5c-2 0-3 1-4 2l-4 4c-1 1-2 2-4 2h-12c-2 0-3-1-4-2l-4-4c-1-1-2-2-4-2h-8c-2.21 0-4 1.79-4 4v88c0 2.21 1.79 4 4 4h8c2 0 3 1 4 2l4 4c1 1 2 2 4 2h12c2 0 3-1 4-2l4-4c1-1 2-2 4-2h230.91c2.21 0 4 1.79 4 4v24c0 2.21-1.79 4-4 4H381.5c-2 0-3 1-4 2l-4 4c-1 1-2 2-4 2h-12c-2 0-3-1-4-2l-4-4c-1-1-2-2-4-2h-8c-2.21 0-4-1.79-4-4z"
            style="fill:none;stroke:#956134;stroke-width:3px;stroke-miterlimit:10"
            transform="translate(-269.13 -120.82)" />
        <g>
            <path
                d="M409.79 222.87c0-2.21 1.79-4 4-4h8c2 0 3 1 4 2l4 4c1 1 2 2 4 2h12c2 0 3-1 4-2l4-4c1-1 2-2 4-2h44c2.21 0 4 1.79 4 4v40c0 2.21-1.79 4-4 4h-44c-2 0-3 1-4 2l-4 4c-1 1-2 2-4 2h-12c-2 0-3-1-4-2l-4-4c-1-1-2-2-4-2h-8c-2.21 0-4-1.79-4-4z"
                style="fill:none;stroke:#956134;stroke-width:3px;stroke-miterlimit:10"
                transform="translate(-269.13 -120.82)" />
            <g>
                <path
                    d="M409.79 270.87c0-2.21 1.79-4 4-4h8c2 0 3 1 4 2l4 4c1 1 2 2 4 2h12c2 0 3-1 4-2l4-4c1-1 2-2 4-2h76c2.21 0 4 1.79 4 4v40c0 2.21-1.79 4-4 4h-76c-2 0-3 1-4 2l-4 4c-1 1-2 2-4 2h-12c-2 0-3-1-4-2l-4-4c-1-1-2-2-4-2h-8c-2.21 0-4-1.79-4-4z"
                    style="fill:none;stroke:#956134;stroke-width:3px;stroke-miterlimit:10"
                    transform="translate(-269.13 -120.82)" />
            </g>
        </g>
        <path
            d="M360.6 362.62c0-2.21 1.79-4 4-4h8c2 0 3 1 4 2l4 4c1 1 2 2 4 2h12c2 0 3-1 4-2l4-4c1-1 2-2 4-2h215.81c2.21 0 4 1.79 4 4v40c0 2.21-1.79 4-4 4H408.6c-2 0-3 1-4 2l-4 4c-1 1-2 2-4 2h-12c-2 0-3-1-4-2l-4-4c-1-1-2-2-4-2h-8c-2.21 0-4-1.79-4-4z"
            style="fill:none;stroke:#956134;stroke-width:3px;stroke-miterlimit:10"
            transform="translate(-269.13 -120.82)" />
        <g>
            <path
                d="M559.25 678.69c0-2.21 1.79-4 4-4h8c2 0 3 1 4 2l4 4c1 1 2 2 4 2h12c2 0 3-1 4-2l4-4c1-1 2-2 4-2h44c2.21 0 4 1.79 4 4v40c0 2.21-1.79 4-4 4h-44c-2 0-3 1-4 2l-4 4c-1 1-2 2-4 2h-12c-2 0-3-1-4-2l-4-4c-1-1-2-2-4-2h-8c-2.21 0-4-1.79-4-4z"
                style="fill:none;stroke:#956134;stroke-width:3px;stroke-miterlimit:10"
                transform="translate(-269.13 -120.82)" />
            <g>
                <path
                    d="M559.25 726.69c0-2.21 1.79-4 4-4h8c2 0 3 1 4 2l4 4c1 1 2 2 4 2h12c2 0 3-1 4-2l4-4c1-1 2-2 4-2h76c2.21 0 4 1.79 4 4v40c0 2.21-1.79 4-4 4h-76c-2 0-3 1-4 2l-4 4c-1 1-2 2-4 2h-12c-2 0-3-1-4-2l-4-4c-1-1-2-2-4-2h-8c-2.21 0-4-1.79-4-4z"
                    style="fill:none;stroke:#956134;stroke-width:3px;stroke-miterlimit:10"
                    transform="translate(-269.13 -120.82)" />
            </g>
        </g>
        <path
            d="M1.5 193.5c0-2.21 1.79-4 4-4h8c2 0 3 1 4 2l4 4c1 1 2 2 4 2h12c2 0 3-1 4-2l4-4c1-1 2-2 4-2h246.91c2.21 0 4 1.79 4 4v40c0 2.21-1.79 4-4 4H65.5c-2 0-3 1-4 2l-4 4c-1 1-2 2-4 2h-12c-2 0-3-1-4-2l-4-4c-1-1-2-2-4-2h-8c-2.21 0-4 1.79-4 4v88c0 2.21 1.79 4 4 4h8c2 0 3 1 4 2l4 4c1 1 2 2 4 2h12c2 0 3-1 4-2l4-4c1-1 2-2 4-2h230.91c2.21 0 4 1.79 4 4v24c0 2.21-1.79 4-4 4H49.5c-2 0-3 1-4 2l-4 4c-1 1-2 2-4 2h-12c-2 0-3-1-4-2l-4-4c-1-1-2-2-4-2h-8c-2.21 0-4-1.79-4-4z"
            style="fill:none;stroke:#956134;stroke-width:3px;stroke-miterlimit:10"
            transform="translate(-269.13 -120.82)" />
        <path
            d="M28.6 550.62c0-2.21 1.79-4 4-4h8c2 0 3 1 4 2l4 4c1 1 2 2 4 2h12c2 0 3-1 4-2l4-4c1-1 2-2 4-2h215.81c2.21 0 4 1.79 4 4v40c0 2.21-1.79 4-4 4H76.6c-2 0-3 1-4 2l-4 4c-1 1-2 2-4 2h-12c-2 0-3-1-4-2l-4-4c-1-1-2-2-4-2h-8c-2.21 0-4-1.79-4-4z"
            style="fill:none;stroke:#956134;stroke-width:3px;stroke-miterlimit:10"
            transform="translate(-269.13 -120.82)" />
        <path
            d="M150.95 649.32c0-2.21 1.79-4 4-4h8c2 0 3 1 4 2l4 4c1 1 2 2 4 2h12c2 0 3-1 4-2l4-4c1-1 2-2 4-2h246.91c2.21 0 4 1.79 4 4v40c0 2.21-1.79 4-4 4H214.95c-2 0-3 1-4 2l-4 4c-1 1-2 2-4 2h-12c-2 0-3-1-4-2l-4-4c-1-1-2-2-4-2h-8c-2.21 0-4 1.79-4 4v88c0 2.21 1.79 4 4 4h8c2 0 3 1 4 2l4 4c1 1 2 2 4 2h12c2 0 3-1 4-2l4-4c1-1 2-2 4-2h230.91c2.21 0 4 1.79 4 4v24c0 2.21-1.79 4-4 4H198.95c-2 0-3 1-4 2l-4 4c-1 1-2 2-4 2h-12c-2 0-3-1-4-2l-4-4c-1-1-2-2-4-2h-8c-2.21 0-4-1.79-4-4z"
            style="fill:none;stroke:#956134;stroke-width:3px;stroke-miterlimit:10"
            transform="translate(-269.13 -120.82)" />
    </g>
    <g transform="translate(-269.13 -120.82)">
        <rect width="218.46" height="40.92" x="1204.68" y="649.93" rx="5.11" ry="5.11"
            style="fill:#e6f0ff;stroke:#b6c4d0" />
        <text x="1218.22" y="679"
            style="font-weight:500;font-size:24.74px;font-family:sans-serif;font-variation-settings:&quot;slnt&quot;0,&quot;wdth&quot;100,&quot;wght&quot;500;fill:#575e75">
            variable</text>
        <rect width="78.87" height="26.4" x="1328.43" y="657.19" rx="5.74" ry="5.74"
            style="fill:#ff8c1a" />
        <text x="1342.36" y="679"
            style="font-weight:500;font-size:23.17px;font-family:sans-serif;font-variation-settings:&quot;slnt&quot;0,&quot;wdth&quot;100,&quot;wght&quot;500;fill:#fff">
            3.14</text>
    </g>
    <text
        style="text-anchor:middle;font-weight:700;font-size:90px;font-family:sans-serif;font-variation-settings:&quot;slnt&quot;0,&quot;wdth&quot;100,&quot;wght&quot;500;fill:#fff"
        transform="translate(600 150)">
        <tspan x="0" y="0">__SITE_TITLE__</tspan>
    </text>
    <path
        d="M397.67 382.45c0-7.68 4-14.38 10.05-18.27 1.84-8.11 5.84-14.27 8.22-15.35 2.81-1.41 10.81 6.49 15.78 12h35.68c4.97-5.51 12.87-13.41 15.78-12 2.05.97 5.3 5.62 7.35 12h121.98c11.94 0 21.62 9.68 21.62 21.62v64.87c0 2.39-1.94 4.32-4.32 4.32H449.56c-2.16 0-3.24 1.08-4.32 2.16l-4.32 4.32c-1.08 1.08-2.16 2.16-4.32 2.16h-12.97c-2.16 0-3.24-1.08-4.32-2.16l-4.32-4.32c-1.08-1.08-2.16-2.16-4.32-2.16h-8.65c-2.39 0-4.32-1.94-4.32-4.32v-64.87z"
        style="fill:#ff6680;stroke:#f35" transform="translate(-269.13 -120.82)" />
    <path
        d="M449.57 386.77c0-2.39 1.94-4.32 4.32-4.32h8.65c2.16 0 3.24 1.08 4.32 2.16l4.32 4.32c1.08 1.08 2.16 2.16 4.32 2.16h12.97c2.16 0 3.24-1.08 4.32-2.16l4.32-4.32c1.08-1.08 2.16-2.16 4.32-2.16h119.71c2.39 0 4.32 1.94 4.32 4.32v43.24c0 2.39-1.94 4.32-4.32 4.32H501.43c-2.16 0-3.24 1.08-4.32 2.16l-4.32 4.32c-1.08 1.08-2.16 2.16-4.32 2.16H475.5c-2.16 0-3.24-1.08-4.32-2.16l-4.32-4.32c-1.08-1.08-2.16-2.16-4.32-2.16h-8.65c-2.39 0-4.32-1.94-4.32-4.32z"
        style="fill:#ff4d6a;stroke:#f35" transform="translate(-269.13 -120.82)" />
    <path
        d="M546.18 386.77h17.32c11.94 0 21.62 9.68 21.62 21.62s-9.68 21.62-21.62 21.62h-17.32c-11.94 0-21.62-9.68-21.62-21.62s9.68-21.62 21.62-21.62z"
        style="fill:#ff6680;stroke:#f35" transform="translate(-269.13 -120.82)" />
    <path
        d="M397.67 455.96c0-2.39 1.94-4.32 4.32-4.32h8.65c2.16 0 3.24 1.08 4.32 2.16l4.32 4.32c1.08 1.08 2.16 2.16 4.32 2.16h12.97c2.16 0 3.24-1.08 4.32-2.16l4.32-4.32c1.08-1.08 2.16-2.16 4.32-2.16h266.94c2.39 0 4.32 1.94 4.32 4.32v43.24c0 2.39-1.94 4.32-4.32 4.32H466.83c-2.16 0-3.24 1.08-4.32 2.16l-4.32 4.32c-1.08 1.08-2.16 2.16-4.32 2.16H440.9c-2.16 0-3.24-1.08-4.32-2.16l-4.32-4.32c-1.08-1.08-2.16-2.16-4.32-2.16h-8.65c-2.39 0-4.32 1.94-4.32 4.32v95.14c0 2.39 1.94 4.32 4.32 4.32h8.65c2.16 0 3.24 1.08 4.32 2.16l4.32 4.32c1.08 1.08 2.16 2.16 4.32 2.16h12.97c2.16 0 3.24-1.08 4.32-2.16l4.32-4.32c1.08-1.08 2.16-2.16 4.32-2.16h249.64c2.39 0 4.32 1.94 4.32 4.32v25.95c0 2.39-1.94 4.32-4.32 4.32h-266.9c-2.16 0-3.24 1.08-4.32 2.16l-4.32 4.32c-1.08 1.08-2.16 2.16-4.32 2.16h-12.97c-2.16 0-3.24-1.08-4.32-2.16l-4.32-4.32c-1.08-1.08-2.16-2.16-4.32-2.16h-8.65c-2.39 0-4.32-1.94-4.32-4.32V455.94Z"
        style="fill:#ffab19;stroke:#cf8b17" transform="translate(-269.13 -120.82)" />
    <path d="M471.19 455.96h176.12l21.62 21.62-21.62 21.62H471.19l-21.62-21.62z"
        style="fill:#5cb1d6;stroke:#2e8eb8" transform="translate(-269.13 -120.82)" />
    <path
        d="M531.73 460.29h80.01c9.55 0 17.3 7.74 17.3 17.3s-7.74 17.3-17.3 17.3h-80.01c-9.55 0-17.3-7.74-17.3-17.3s7.74-17.3 17.3-17.3z"
        style="fill:#47a8d1;stroke:#2e8eb8" transform="translate(-269.13 -120.82)" />
    <g>
        <path
            d="M414.97 507.86c0-2.39 1.94-4.32 4.32-4.32h8.65c2.16 0 3.24 1.08 4.32 2.16l4.32 4.32c1.08 1.08 2.16 2.16 4.32 2.16h12.97c2.16 0 3.24-1.08 4.32-2.16l4.32-4.32c1.08-1.08 2.16-2.16 4.32-2.16h47.57c2.39 0 4.32 1.94 4.32 4.32v43.24c0 2.39-1.94 4.32-4.32 4.32h-47.57c-2.16 0-3.24 1.08-4.32 2.16l-4.32 4.32c-1.08 1.08-2.16 2.16-4.32 2.16H440.9c-2.16 0-3.24-1.08-4.32-2.16l-4.32-4.32c-1.08-1.08-2.16-2.16-4.32-2.16h-8.65c-2.39 0-4.32-1.94-4.32-4.32z"
            style="fill:#96f;stroke:#774dcb"
            transform="translate(-269.13 -120.82)" />
        <g>
            <path
                d="M414.97 559.75c0-2.39 1.94-4.32 4.32-4.32h8.65c2.16 0 3.24 1.08 4.32 2.16l4.32 4.32c1.08 1.08 2.16 2.16 4.32 2.16h12.97c2.16 0 3.24-1.08 4.32-2.16l4.32-4.32c1.08-1.08 2.16-2.16 4.32-2.16H549c2.39 0 4.32 1.94 4.32 4.32v43.24c0 2.39-1.94 4.32-4.32 4.32h-82.17c-2.16 0-3.24 1.08-4.32 2.16l-4.32 4.32c-1.08 1.08-2.16 2.16-4.32 2.16H440.9c-2.16 0-3.24-1.08-4.32-2.16l-4.32-4.32c-1.08-1.08-2.16-2.16-4.32-2.16h-8.65c-2.39 0-4.32-1.94-4.32-4.32z"
                style="fill:#4c97ff;stroke:#3373cc"
                transform="translate(-269.13 -120.82)" />
        </g>
    </g>
    <path
        d="M397.67 646.24c0-2.39 1.94-4.32 4.32-4.32h8.65c2.16 0 3.24 1.08 4.32 2.16l4.32 4.32c1.08 1.08 2.16 2.16 4.32 2.16h12.97c2.16 0 3.24-1.08 4.32-2.16l4.32-4.32c1.08-1.08 2.16-2.16 4.32-2.16h233.31c2.39 0 4.32 1.94 4.32 4.32v43.24c0 2.39-1.94 4.32-4.32 4.32H449.53c-2.16 0-3.24 1.08-4.32 2.16l-4.32 4.32c-1.08 1.08-2.16 2.16-4.32 2.16H423.6c-2.16 0-3.24-1.08-4.32-2.16l-4.32-4.32c-1.08-1.08-2.16-2.16-4.32-2.16h-8.65c-2.39 0-4.32-1.94-4.32-4.32z"
        style="fill:#ff8c1a;stroke:#db6e00"
        transform="translate(-269.13 -120.82)" />
    <path
        d="M652.61 650.56h8.65c9.55 0 17.3 7.74 17.3 17.3s-7.74 17.3-17.3 17.3h-8.65c-9.55 0-17.3-7.74-17.3-17.3s7.74-17.3 17.3-17.3z"
        style="fill:#fff;stroke:#db6e00" transform="translate(-269.13 -120.82)" />
    <rect width="133.85" height="34.6" x="449.57" y="650.56" rx="4.32" ry="4.32"
        style="fill:#ff8c1a;stroke:#db6e00" transform="translate(-269.13 -120.82)" />
    <path
        d="M1206.78 339.91c-.28 4.39-5.05 6.73-10.68 5.23s-9.92-6.25-9.63-10.63c.27-4.4 5.05-6.75 10.67-5.25 1.18.31 2.3.78 3.34 1.35.58.32 1.08.64 1.57 1.01 1.6.39.92-4.24 2.59-23.23 2.08-23.51 6.5-1.93 17.35-.77 10.86 1.16-2.2 8.84-8.54 5.25-6.32-3.61-5.02-15.33-6.68 27.05zm-33.96 2.68c-.29 4.39-5.07 6.74-10.67 5.25s-9.92-6.26-9.64-10.66c.29-4.39 5.07-6.74 10.69-5.25 1.83.49 3.51 1.32 4.95 2.38 1.53.3.88-4.42 2.54-23.24 2.08-23.51 6.5-1.93 17.35-.77 10.86 1.14-2.2 8.84-8.53 5.23-6.32-3.61-5.02-15.32-6.68 27.05z"
        style="fill:#5cb1d6;fill-rule:evenodd;stroke:#2e8eb8" transform="translate(-231.13 -51.428)" />
    <path
        d="M1202.01 330.43c.13-.57.24-1.55.36-3.23.07-.95.35-5.82.44-7.18.24-3.81.52-7.53.88-11.72.72-8.07 1.67-11.39 3.8-11.76 1.03-.18 1.98.37 3.19 1.53.65.62 3.32 3.55 3.15 3.37 3.04 3.24 5.47 4.92 8.25 5.22 2.9.31 4.6 1.11 4.95 2.53.33 1.33-.66 2.59-2.39 3.63-3.43 2.05-8.48 2.66-11.67.85-1.39-.8-2.04-1.45-3.73-3.47l-.14-.17c-.2 1.11-.36 3.31-.54 7.3-.11 2.58-.67 17.79-.86 22.61v.02c-.32 5.07-5.72 7.72-11.86 6.08s-10.66-6.72-10.33-11.61c.31-5.08 5.72-7.74 11.86-6.1a15.8 15.8 0 0 1 4.63 2.09zm-33.96 2.69c.14-.59.24-1.57.36-3.3.06-.88.34-5.65.44-7.17.24-3.77.52-7.47.89-11.64.72-8.07 1.68-11.39 3.8-11.75 1.03-.18 1.98.37 3.19 1.53.65.62 3.32 3.55 3.15 3.37 3.04 3.24 5.46 4.92 8.25 5.22 2.9.3 4.61 1.1 4.96 2.52.33 1.33-.66 2.59-2.39 3.63-3.43 2.05-8.49 2.66-11.66.84-1.39-.8-2.03-1.45-3.73-3.47l-.14-.16c-.2 1.11-.36 3.31-.54 7.29-.11 2.59-.67 17.8-.86 22.61v.03c-.34 5.07-5.74 7.73-11.86 6.1s-10.65-6.73-10.34-11.63c.33-5.08 5.74-7.72 11.87-6.09 1.65.44 3.22 1.15 4.63 2.08z"
        style="fill:#5cb1d6" transform="translate(-231.13 -51.428)" />
    <path
        d="M941.12 698.97c-7.39-3.09-13.87-7.38-19.28-12.77l-50.33-50.15c-2.16-2.15-1.04-6.73 2.47-10.23 3.52-3.51 8.12-4.61 10.27-2.46l50.33 50.14c5.41 5.39 9.71 11.84 12.82 19.21l4.54 10.8-10.83-4.54"
        style="fill:#fff;fill-rule:evenodd;stroke:#575e75;stroke-linecap:round;stroke-linejoin:round"
        transform="translate(-269.13 -120.82)" />
    <path d="M920.46 645.01s-6.67 5.66-11.09-3.94c-9.56-20.77-20.9-14.71-20.9-14.71"
        style="fill:none;stroke:#575e75;stroke-linecap:round;stroke-linejoin:round"
        transform="translate(-269.13 -120.82)" />
    <path
        d="M870.61 633.28c0-2.22 1.27-4.97 3.56-7.28 3.53-3.49 8.13-4.59 10.28-2.45l23.79 23.7c-2.18-2.06-6.73-.94-10.2 2.52-2.29 2.31-3.58 5.08-3.58 7.31 0 1.15.33 2.12 1.04 2.85l-23.79-23.7c-.74-.74-1.1-1.79-1.1-2.97m66.02 63.58c.47-1.76 1.6-3.68 3.28-5.36 1.68-1.67 3.61-2.8 5.37-3.27.77 1.46 1.47 2.94 2.12 4.48l4.55 10.79-10.83-4.53c-1.55-.66-3.04-1.35-4.5-2.12"
        style="fill:#4c97ff;fill-rule:evenodd;stroke:#575e75;stroke-linecap:round;stroke-linejoin:round"
        transform="translate(-269.13 -120.82)" />
    <path
        d="M870.42 633.09c0-2.22 1.27-4.97 3.56-7.28.6-.6 1.24-1.13 1.88-1.56-1.3 1.84-1.99 3.76-1.99 5.41 0 1.18.36 2.22 1.1 2.97l50.31 50.15c5.43 5.38 11.91 9.66 19.29 12.77l4.91 2.06 2.48 5.9-10.83-4.53c-7.39-3.1-13.87-7.39-19.3-12.77l-50.31-50.15c-.75-.74-1.1-1.79-1.1-2.97"
        style="opacity:.15;isolation:isolate;fill:#575e75;fill-rule:evenodd;stroke:#575e75;stroke-linecap:round;stroke-linejoin:round"
        transform="translate(-269.13 -120.82)" />
    <path
        d="M916.4 643.49a2.3 2.3 0 0 1 2.3-2.3c1.27 0 2.31 1.03 2.31 2.3s-1.03 2.3-2.31 2.3-2.3-1.03-2.3-2.31v0z"
        style="fill:#575e75;fill-rule:evenodd;stroke:#575e75;stroke-linecap:round;stroke-linejoin:round"
        transform="translate(-269.13 -120.82)" />
    <path
        d="M1242.19 563.9c3.63-3.63 9.53-3.63 13.16 0s3.63 9.53 0 13.16-19.89 6.73-19.89 6.73 3.09-16.25 6.73-19.89"
        style="fill:#f6c500" transform="translate(-254.26 -119.168)" />
    <path
        d="M1243.43 575.83s1.85-9.75 4.03-11.93a5.56 5.56 0 0 1 3.95-1.63h.12l5.46 5.46a5.55 5.55 0 0 1-1.63 4.06c-2.18 2.18-11.93 4.03-11.93 4.03"
        style="fill:#fad557" transform="translate(-254.26 -119.168)" />
    <path
        d="M1242.63 564.33c-2.98 2.98-5.67 15.24-6.38 18.67 3.43-.71 15.69-3.4 18.67-6.38 3.39-3.39 3.39-8.9 0-12.29s-8.91-3.39-12.29 0m-7.16 20.07c-.16 0-.32-.06-.43-.18a.62.62 0 0 1-.17-.55c.13-.67 3.17-16.48 6.9-20.21 3.87-3.87 10.16-3.87 14.03 0s3.87 10.16 0 14.03c-3.73 3.73-19.53 6.77-20.21 6.9-.04 0-.08.01-.11.01"
        style="fill:#6e2517" transform="translate(-254.26 -119.168)" />
    <path d="m1261.08 570.96-12.79-12.79 6.37-6.36 12.79 12.78z" style="fill:#696863"
        transform="translate(-254.26 -119.168)" />
    <path d="m1250.82 559.83-1.66-1.66 3.41-3.41c.42.57.89 1.12 1.4 1.63l.15.15-3.29 3.29"
        style="fill:#5a5854" transform="translate(-254.26 -119.168)" />
    <path
        d="m1249.16 558.17 11.92 11.92 5.5-5.5-11.92-11.92zm11.92 13.4c-.16 0-.31-.06-.43-.18l-12.79-12.79a.62.62 0 0 1-.18-.43c0-.16.06-.32.18-.43l6.36-6.36c.24-.24.63-.24.87 0l12.79 12.79c.11.11.18.27.18.43s-.06.32-.18.43l-6.36 6.36c-.12.12-.28.18-.43.18"
        style="fill:#6e2517" transform="translate(-254.26 -119.168)" />
    <path
        d="M1280.03 581.64c-1.38 1.08-3.39.72-4.3-.76-1.74-2.83-3.94-9-4.24-22.26-.53-22.51 24.24-8.9 24.24-8.9s5.92 15.1-15.7 31.92"
        style="fill:#696863" transform="translate(-254.26 -119.168)" />
    <path
        d="M1278.22 581.65c-.14 0-.28-.01-.41-.04a2.3 2.3 0 0 1-1.61-1.15c10.24-8.41 13.71-16.31 14.67-21.99 1.67-1.79 3.3-3.65 4.87-5.56.48 5.13-.7 16.27-16.09 28.25-.41.32-.92.5-1.44.5"
        style="fill:#82817b" transform="translate(-254.26 -119.168)" />
    <path
        d="M1281.67 546.25c-1.93 0-3.77.36-5.31 1.29-2.95 1.79-4.38 5.51-4.26 11.06.3 13.07 2.42 19.15 4.15 21.95.35.57.9.94 1.56 1.06.65.12 1.33-.05 1.85-.46 19.62-15.27 16.15-29.17 15.58-31.01-1.24-.65-7.77-3.89-13.56-3.89m-3.45 36.63q-.315 0-.63-.06a3.5 3.5 0 0 1-2.38-1.63c-1.81-2.93-4.02-9.22-4.33-22.56-.14-6.01 1.49-10.09 4.85-12.13 7.25-4.39 19.78 2.39 20.31 2.68.13.07.22.18.28.31.25.63 5.83 15.72-15.9 32.63-.63.49-1.4.75-2.19.75"
        style="fill:#6e2517" transform="translate(-254.26 -119.168)" />
    <path
        d="M1237.62 539.22c-1.08 1.38-.72 3.39.76 4.3 2.83 1.74 9 3.94 22.26 4.24 22.51.53 8.9-24.24 8.9-24.24s-15.1-5.92-31.92 15.7"
        style="fill:#696863" transform="translate(-254.26 -119.168)" />
    <path
        d="M1238.79 543.05s-.06-.04-.09-.05c-.56-.35-.94-.9-1.06-1.55s.05-1.33.46-1.85c10.73-13.79 20.79-16.17 26.46-16.17.66 0 1.26.03 1.79.08-1.91 1.57-3.78 3.2-5.56 4.87-5.68.96-13.58 4.43-21.99 14.67"
        style="fill:#82817b" transform="translate(-254.26 -119.168)" />
    <path
        d="M1264.55 523.43c-5.67 0-15.72 2.38-26.46 16.17-.41.52-.58 1.2-.46 1.85s.49 1.21 1.06 1.55c2.8 1.73 8.88 3.85 21.95 4.15 5.52.14 9.26-1.3 11.06-4.26 3.74-6.16-1.74-17.22-2.6-18.87-.55-.17-2.16-.6-4.56-.6m-3.22 24.96h-.71c-13.34-.31-19.64-2.52-22.57-4.33a3.55 3.55 0 0 1-1.62-2.38c-.18-.99.07-2.02.7-2.82 16.91-21.74 32-16.14 32.63-15.9.13.05.24.15.31.28.29.53 7.08 13.06 2.68 20.3-1.96 3.22-5.8 4.85-11.43 4.85"
        style="fill:#6e2517" transform="translate(-254.26 -119.168)" />
    <path
        d="M1287.96 560.6c-3.3 3.3-6.68 5.62-10.01 7.12-4.96 2.24-10.82.97-14.67-2.88l-8.87-8.87a13.38 13.38 0 0 1-2.62-15.24c1.51-3.15 3.74-6.33 6.86-9.44 9.12-9.12 20.44-17.1 30.46-21.72 9.81-4.53 18.37-5.83 22.38-1.82s2.71 12.57-1.82 22.38c-4.61 10.03-12.59 21.35-21.71 30.47"
        style="fill:#fff" transform="translate(-254.26 -119.168)" />
    <path
        d="M1272.8 568.2c-3.3 0-6.6-1.32-9.07-3.79l-2.28-2.28c1.47-.85 3.07-1.97 4.63-3.23 2.05 1.2 4.38 1.84 6.72 1.84 1.75 0 3.51-.36 5.16-1.1 3.33-1.5 6.71-3.82 10.01-7.12 7.11-7.11 13.52-15.56 18.19-23.69.94.42 1.91.79 2.88 1.11-4.68 10.07-12.73 21.46-21.51 30.24-3.11 3.1-6.41 5.46-9.82 6.99-1.56.7-3.24 1.04-4.91 1.04m-15.68-10.4-2.28-2.28c-3.25-3.25-4.51-7.94-3.4-12.15.66 1.65 1.66 3.19 2.97 4.5l5.65 5.65c-1.15 1.45-2.17 2.92-2.95 4.28"
        style="fill:#e2e1e0" transform="translate(-254.26 -119.168)" />
    <path
        d="M1304.53 505.97c-11.45 0-31.66 11.97-45.45 25.76-3.1 3.1-5.46 6.41-6.99 9.82-2.09 4.63-.98 10.25 2.75 13.98l8.89 8.88c3.73 3.73 9.35 4.84 13.98 2.75 3.41-1.54 6.72-3.89 9.82-6.99 17.1-17.1 31.41-44.1 23.54-51.98-1.53-1.53-3.78-2.22-6.53-2.22m-31.73 63.46c-3.62 0-7.24-1.44-9.94-4.15l-8.89-8.88c-4.09-4.09-5.29-10.26-3-15.35 1.6-3.55 4.04-6.98 7.24-10.18 17.86-17.86 45.21-32.03 53.71-23.54 8.5 8.5-5.67 35.85-23.53 53.71-3.21 3.21-6.64 5.65-10.19 7.24-1.72.78-3.57 1.15-5.41 1.15"
        style="fill:#6e2517" transform="translate(-254.26 -119.168)" />
    <path
        d="M1309.67 530.13c-4.7-1.43-9.12-4.01-12.83-7.72a30.8 30.8 0 0 1-7.72-12.83c9.81-4.53 18.37-5.83 22.38-1.82s2.71 12.57-1.82 22.38"
        style="fill:#e3472d" transform="translate(-254.26 -119.168)" />
    <path d="m1296.86 522.43-.02-.02a30.9 30.9 0 0 1-7.52-12.19c1.47 4.46 3.97 8.65 7.52 12.19z"
        style="fill:#fff" transform="translate(-254.26 -119.168)" />
    <path
        d="M1289.32 510.21c-.07-.21-.14-.43-.2-.64.07.21.13.43.2.64m23.42-.79c-.34-.62-.75-1.18-1.24-1.67.49.49.91 1.05 1.24 1.67"
        style="fill:#965f51" transform="translate(-254.26 -119.168)" />
    <path
        d="m1298.34 523.82-.01-.01q-.75-.66-1.47-1.38l-.02-.02a30.9 30.9 0 0 1-7.52-12.19c-.07-.21-.14-.43-.2-.64 5.78-2.67 11.13-4.22 15.37-4.22 2.95 0 5.36.75 7.01 2.4.49.49.9 1.05 1.24 1.67-1.46-.79-3.27-1.16-5.34-1.16-4.24 0-9.58 1.55-15.37 4.22 1.24 4.08 3.35 7.95 6.32 11.34"
        style="fill:#e97965" transform="translate(-254.26 -119.168)" />
    <path
        d="M1289.86 509.9c1.47 4.52 4.02 8.69 7.41 12.07a30.5 30.5 0 0 0 12.07 7.41c4.54-10.03 5.18-17.74 1.72-21.2-3.45-3.45-11.16-2.82-21.2 1.72m19.81 20.83c-.06 0-.12 0-.18-.03-4.91-1.5-9.44-4.22-13.09-7.87a31.7 31.7 0 0 1-7.87-13.09c-.09-.29.05-.61.33-.73 10.92-5.05 19.12-5.65 23.07-1.7s3.35 12.15-1.7 23.07c-.1.22-.32.36-.56.36z"
        style="fill:#6e2517" transform="translate(-254.26 -119.168)" />
    <path
        d="M1278.31 527.94a9.19 9.19 0 0 1 13 0 9.19 9.19 0 0 1 0 13 9.19 9.19 0 0 1-13 0 9.19 9.19 0 0 1 0-13"
        style="fill:#7fc4e9" transform="translate(-254.26 -119.168)" />
    <path
        d="M1293.49 537.5a9.2 9.2 0 0 0-.49-7.23 9.22 9.22 0 0 1 .49 7.24m-17.37 0c-1.12-3.23-.41-6.97 2.18-9.56 1.8-1.8 4.15-2.69 6.5-2.69s4.63.87 6.42 2.61a9.15 9.15 0 0 0-6.41-2.61c-2.31 0-4.71.9-6.5 2.69a9.19 9.19 0 0 0-2.18 9.54v.02"
        style="fill:#fff" transform="translate(-254.26 -119.168)" />
    <path
        d="M1293.49 537.49a9.3 9.3 0 0 0-2.18-3.43 9.18 9.18 0 0 0-6.5-2.69c-2.35 0-4.7.9-6.5 2.69-1 1-1.72 2.18-2.18 3.42a9.19 9.19 0 0 1 2.18-9.54c1.8-1.8 4.15-2.69 6.5-2.69s4.63.87 6.41 2.61l.08.08c.7.7 1.26 1.48 1.69 2.32a9.24 9.24 0 0 1 .49 7.23"
        style="fill:#acd9f2" transform="translate(-254.26 -119.168)" />
    <path
        d="M1284.81 525.86c-2.29 0-4.45.89-6.07 2.51a8.53 8.53 0 0 0-2.51 6.07c0 2.29.89 4.45 2.51 6.07a8.53 8.53 0 0 0 6.07 2.51c2.29 0 4.45-.89 6.07-2.51a8.53 8.53 0 0 0 2.51-6.07c0-2.29-.89-4.45-2.51-6.07a8.53 8.53 0 0 0-6.07-2.51m0 18.38c-2.51 0-5.02-.95-6.93-2.87a9.74 9.74 0 0 1-2.87-6.93c0-2.62 1.02-5.08 2.87-6.93a9.74 9.74 0 0 1 6.93-2.87c2.62 0 5.08 1.02 6.93 2.87 3.82 3.82 3.82 10.04 0 13.87a9.78 9.78 0 0 1-6.93 2.87z"
        style="fill:#6e2517" transform="translate(-254.26 -119.168)" />
    <path
        d="M1269.38 555.92c-5 5-11.91 9.2-13.58 7.53s2.54-8.59 7.53-13.58c5-5 8.89-6.18 10.56-4.51s.48 5.57-4.51 10.56"
        style="fill:#e3472d" transform="translate(-254.26 -119.168)" />
    <path
        d="M1255.9 563.55s-.07-.06-.11-.09c-.72-.72-.34-2.42.72-4.52-1.06 2.1-1.44 3.8-.71 4.53.03.03.07.06.1.09"
        style="fill:#94928c" transform="translate(-254.26 -119.168)" />
    <path
        d="M1260.07 553.53c1-1.27 2.11-2.51 3.26-3.66 3.6-3.6 6.63-5.22 8.67-5.22h.06-.05c-2.04 0-5.07 1.62-8.67 5.22-1.15 1.15-2.25 2.4-3.26 3.66"
        style="fill:#fff" transform="translate(-254.26 -119.168)" />
    <path d="M1257.12 557.81c.79-1.36 1.8-2.83 2.95-4.28-1.15 1.45-2.17 2.92-2.95 4.28"
        style="fill:#ebebea" transform="translate(-254.26 -119.168)" />
    <path d="M1256.51 558.93c.18-.37.39-.74.61-1.12-.22.39-.43.76-.61 1.12" style="fill:#965f51"
        transform="translate(-254.26 -119.168)" />
    <path d="M1274.26 549.07c.16-.46.26-.88.31-1.28-.05.4-.15.83-.31 1.29" style="fill:#fff"
        transform="translate(-254.26 -119.168)" />
    <path
        d="M1255.9 563.54s-.07-.06-.1-.09c-.72-.72-.35-2.42.71-4.52.18-.36.39-.74.61-1.12.79-1.36 1.8-2.83 2.95-4.28 1-1.26 2.11-2.51 3.26-3.66 3.6-3.6 6.63-5.22 8.67-5.22h.05c.76.01 1.38.25 1.84.71.57.57.81 1.39.68 2.42-.05.4-.15.82-.31 1.28-.1-.17-.22-.33-.37-.47-.47-.47-1.11-.71-1.9-.71-2.04 0-5.06 1.62-8.66 5.22-3.34 3.34-6.32 7.52-7.44 10.44"
        style="fill:#e97965" transform="translate(-254.26 -119.168)" />
    <path
        d="M1271.99 545.26c-.55 0-1.19.14-1.91.42-1.84.73-4.02 2.32-6.32 4.62-2.4 2.4-4.71 5.36-6.17 7.91-1.55 2.71-1.8 4.37-1.36 4.81s2.1.19 4.81-1.36c2.55-1.46 5.51-3.77 7.91-6.17 2.3-2.3 3.9-4.49 4.62-6.32.6-1.51.56-2.71-.11-3.38-.35-.35-.85-.53-1.47-.53m-15.09 19.17c-.63 0-1.16-.17-1.53-.55-2.26-2.26 2.92-9.84 7.53-14.45 4.92-4.92 9.3-6.65 11.43-4.52s.4 6.51-4.52 11.43c-3.84 3.84-9.75 8.08-12.92 8.08z"
        style="fill:#6e2517" transform="translate(-254.26 -119.168)" />
    <path
        d="m675.485 270.582 8.08 37.59c.16.75.02 1.56-.51 1.98-3.88 5.2-9.39 8.57-15.51 9.89s-12.56.36-18.2-2.64c-4.58-2.45-9.77-3.36-14.85-2.27-4.62.99-8.78 3.45-11.87 7.23l5.35 24.91c.32 1.49-.62 2.94-2.11 3.26s-2.94-.62-3.26-2.11l-13.65-63.55c-.26-1.19.33-2.1.98-2.71 3.94-4.9 9.16-8.21 15.13-9.49s12.71-.39 18.35 2.61c4.58 2.45 9.74 3.21 14.81 2.12s9.46-3.91 12.63-8.02c.77-.79 1.78-1.16 2.77-.91s1.63 1.05 1.86 2.1z"
        style="fill:#549a10" />
</svg>