<?xml version="1.0" encoding="UTF-8" standalone="no"?>
<svg
   version="1.1"
   style="display:block"
   viewBox="0 0 2048 2048"
   width="1024"
   height="1024"
   preserveAspectRatio="none"
   id="svg14"
   xmlns="http://www.w3.org/2000/svg"
   xmlns:svg="http://www.w3.org/2000/svg">
  <defs
     id="defs14" />
  <g
     id="g1"
     transform="matrix(1.14,0,0,1.14,-138.87632,-144.84631)">
    <path
       fill="#2b45cc"
       d="m 552.04,679.96 -0.035,-187.708 c 0.002,-17.163 0.184,-34.815 -0.08,-51.946 -0.44,-28.557 -0.664,-52.424 20.991,-74.056 11.324,-11.168 25.864,-18.506 41.575,-20.981 14.894,-2.26 45.031,-1.254 61.287,-1.226 l 108.808,0.032 367.434,-0.035 c 21.97,0.146 38.84,3.323 54.93,19.573 24.72,24.978 21.43,54.783 21.38,87.171 -0.09,50.154 -0.07,100.616 -0.09,150.797 0.02,21.612 -7.54,42.409 -23.53,57.353 -18.96,17.578 -35.48,20.187 -59.93,21.998 28.84,11.212 49.91,33.733 51.01,65.538 1.14,32.949 0.52,66.894 0.52,99.877 l -0.03,67.166 c -0.03,39.004 2.8,78.632 -40.59,97.157 -2.85,1.2 -5.73,2.34 -8.63,3.42 l 67.66,0.05 c 11.25,0 29.06,-0.44 39.7,0.64 20.05,0.33 36.42,6.11 50.7,20.74 9.5,9.79 15.94,22.14 18.51,35.54 2.42,12.03 1.38,60.11 1.46,74.91 0.22,44.26 -0.11,89.41 -0.08,133.77 0.02,21.06 -5.84,37.85 -21.1,52.67 -8.37,8.14 -17.28,12.16 -28.19,16.08 0.29,0.04 0.57,0.08 0.86,0.12 30.44,1.71 61.83,-0.88 92.21,0.65 31.85,1.6 57.52,27.57 62.15,58.52 1.95,12.52 1.32,26.35 1.3,39.15 l -0.13,58.16 c -0.03,14.31 -0.16,28.93 0.02,43.21 0.42,34.23 2.8,65.51 -26.84,89.09 -10.03,8.07 -22.03,13.3 -34.77,15.14 -13.41,1.99 -32.76,1.4 -46.72,1.37 l -67.63,-0.11 -242.35,0.09 c -20.754,0.05 -62.635,-2.35 -80.786,3.05 -21.589,6.42 -46.963,46.46 -63.33,56.55 -19.27,15.02 -42.823,11.42 -65.925,11.77 -13.12,0.2 -40.641,1.35 -51.581,-5.86 -24.763,-8.61 -47.776,-54.64 -71.801,-61.79 -36.044,-10.72 -75.78,6.72 -106.378,-26.2 -7.479,-8.05 -17.954,-22.86 -19.613,-34.13 -4.092,-27.8 -2.511,-58.09 -2.51,-86.3 l 0.064,-160.99 0.017,-335.65 z"
       id="path2"
       style="display:inline" />
    <path
       fill="#6c4ee0"
       d="m 551.96,1349.98 87.696,-0.15 c 11.083,-0.02 38.722,-0.68 48.742,1.23 7.539,1.46 14.672,4.54 20.91,9.01 15.087,10.63 23.764,27.26 38.949,38.61 17.317,12.94 31.813,12.14 52.565,11.62 14.178,-0.35 28.382,1.15 42.367,-0.63 33.469,-3.13 47.574,-46.65 75.832,-55.85 20.502,-6.68 60.286,-3.91 82.699,-3.9 l 181.19,0.04 c 20.8,-0.01 74.01,1.2 92.81,-1.47 0.29,0.04 0.57,0.08 0.86,0.12 30.44,1.71 61.83,-0.88 92.21,0.65 31.85,1.6 57.52,27.57 62.15,58.52 1.95,12.52 1.32,26.35 1.3,39.15 l -0.13,58.16 c -0.03,14.31 -0.16,28.93 0.02,43.21 0.42,34.23 2.8,65.51 -26.84,89.09 -10.03,8.07 -22.03,13.3 -34.77,15.14 -13.41,1.99 -32.76,1.4 -46.72,1.37 l -67.63,-0.11 -242.35,0.09 c -20.754,0.05 -62.635,-2.35 -80.786,3.05 -21.589,6.42 -46.963,46.46 -63.33,56.55 -19.27,15.02 -42.823,11.42 -65.925,11.77 -13.12,0.2 -40.641,1.35 -51.581,-5.86 -24.763,-8.61 -47.776,-54.64 -71.801,-61.79 -36.044,-10.72 -75.78,6.72 -106.378,-26.2 -7.479,-8.05 -17.954,-22.86 -19.613,-34.13 -4.092,-27.8 -2.511,-58.09 -2.51,-86.3 z"
       id="path3"
       style="display:inline" />
    <path
       fill="#fc9614"
       d="m 552.04,679.96 -0.035,-187.708 c 0.002,-17.163 0.184,-34.815 -0.08,-51.946 -0.44,-28.557 -0.664,-52.424 20.991,-74.056 11.324,-11.168 25.864,-18.506 41.575,-20.981 14.894,-2.26 45.031,-1.254 61.287,-1.226 l 108.808,0.032 367.434,-0.035 c 21.97,0.146 38.84,3.323 54.93,19.573 24.72,24.978 21.43,54.783 21.38,87.171 -0.09,50.154 -0.07,100.616 -0.09,150.797 0.02,21.612 -7.54,42.409 -23.53,57.353 -18.96,17.578 -35.48,20.187 -59.93,21.998 -12.51,-2.186 -54.14,-1.192 -68.5,-1.289 -40.87,-0.275 -84.383,0.07 -125.099,0.014 -40.245,-0.056 -50.433,17.879 -75.811,45.686 -9.752,10.685 -24.032,16.984 -39.106,16.39 -21.19,-0.834 -48.701,2.521 -69.552,-1.894 -7.447,-2.163 -16.281,-7.546 -21.643,-13.162 -14.394,-15.079 -29.829,-39.002 -51.675,-44.234 -18.311,-4.385 -44.203,-2.811 -63.503,-2.813 -25.951,-0.126 -51.902,-0.016 -77.851,0.33 z"
       id="path4"
       style="display:inline" />
    <path
       fill="#fdfdf9"
       d="m 731.134,499.303 c 17.222,-1.698 32.574,10.854 34.332,28.071 1.758,17.216 -10.741,32.612 -27.951,34.429 -17.295,1.826 -32.783,-10.747 -34.549,-28.048 -1.766,-17.301 10.86,-32.745 28.168,-34.452 z"
       id="path5"
       style="display:inline" />
    <path
       fill="#fdfdf9"
       d="m 858.332,499.388 c 17.234,-2.414 33.142,9.655 35.459,26.903 2.318,17.247 -9.84,33.087 -27.1,35.308 -17.124,2.203 -32.812,-9.838 -35.111,-26.95 -2.299,-17.111 9.654,-32.866 26.752,-35.261 z"
       id="path6" />
    <path
       fill="#fdfdf9"
       d="m 988.778,499.366 c 17.172,-1.514 32.342,11.149 33.922,28.32 1.57,17.171 -11.04,32.382 -28.201,34.02 -17.253,1.646 -32.56,-11.04 -34.144,-28.299 -1.584,-17.259 11.158,-32.52 28.423,-34.041 z"
       id="path7" />
    <path
       fill="#2b8ce9"
       d="m 552.04,679.96 c 25.949,-0.346 51.9,-0.456 77.851,-0.33 19.3,0.002 45.192,-1.572 63.503,2.813 21.846,5.232 37.281,29.155 51.675,44.234 5.362,5.616 14.196,10.999 21.643,13.162 20.851,4.415 48.362,1.06 69.552,1.894 15.074,0.594 29.354,-5.705 39.106,-16.39 25.378,-27.807 35.566,-45.742 75.811,-45.686 40.716,0.056 84.229,-0.289 125.099,-0.014 14.36,0.097 55.99,-0.897 68.5,1.289 28.84,11.212 49.91,33.733 51.01,65.538 1.14,32.949 0.52,66.894 0.52,99.877 l -0.03,67.166 c -0.03,39.004 2.8,78.632 -40.59,97.157 -2.85,1.2 -5.73,2.34 -8.63,3.42 l 67.66,0.05 c 11.25,0 29.06,-0.44 39.7,0.64 -12.28,0.73 -29.9,0.22 -42.52,0.21 -28.52,0.12 -57.04,-0.08 -85.56,-0.6 -57.98,-0.72 -116.8,0.46 -174.522,-0.33 -41.389,-0.56 -50.998,16.73 -76.754,44.75 -22.952,26.11 -56.322,14.32 -82.979,17.16 -57.881,6.16 -56.039,-43.89 -101.2,-59.06 -13.585,-4.56 -46.517,-2.77 -62.713,-2.74 l -76.195,0.16 z"
       id="path8"
       style="display:inline" />
    <path
       fill="#fdfdf9"
       d="m 860.044,835.291 c 17.181,-1.094 32.027,11.875 33.253,29.046 1.225,17.171 -11.629,32.117 -28.79,33.475 -17.349,1.372 -32.494,-11.653 -33.733,-29.012 -1.24,-17.36 11.902,-32.404 29.27,-33.509 z"
       id="path9" />
    <path
       fill="#fdfdf9"
       d="m 988.139,835.245 c 17.141,-1.319 32.151,11.423 33.621,28.554 1.48,17.131 -11.13,32.251 -28.246,33.882 -17.339,1.652 -32.698,-11.152 -34.192,-28.506 -1.494,-17.353 11.45,-32.595 28.817,-33.93 z"
       id="path10" />
    <path
       fill="#fdfdf9"
       d="m 726.569,836.343 c 10.981,-2.531 22.473,1.058 30.062,9.388 7.589,8.331 10.095,20.107 6.554,30.805 -3.541,10.698 -12.577,18.655 -23.637,20.813 -16.705,3.26 -32.94,-7.474 -36.481,-24.122 -3.542,-16.648 6.916,-33.062 23.502,-36.884 z"
       id="path11" />
    <path
       fill="#fdfdf9"
       d="m 985.86,1171.32 c 11.013,-1.68 22.08,2.68 28.98,11.43 6.91,8.74 8.57,20.52 4.37,30.84 -4.2,10.32 -13.62,17.58 -24.671,19.02 -16.816,2.19 -32.262,-9.56 -34.64,-26.35 -2.378,-16.79 9.198,-32.37 25.961,-34.94 z"
       id="path12" />
    <path
       fill="#fdfdf9"
       d="m 857.91,1171.34 c 16.943,-1.99 32.289,10.14 34.266,27.09 1.977,16.94 -10.163,32.28 -27.109,34.24 -16.927,1.96 -32.243,-10.16 -34.218,-27.09 -1.976,-16.92 10.137,-32.25 27.061,-34.24 z"
       id="path13" />
    <path
       fill="#fdfdf9"
       d="m 729.055,1171.33 c 16.866,-2.31 32.413,9.48 34.753,26.34 2.34,16.86 -9.411,32.44 -26.267,34.81 -16.908,2.39 -32.54,-9.41 -34.888,-26.32 -2.347,-16.92 9.483,-32.52 26.402,-34.83 z"
       id="path14" />
  </g>
</svg>
